<?xml version="1.0" encoding="UTF-8" standalone="no"?>
<svg
   version="1.1"
   id="svg869"
   width="739.64032"
   height="739.74292"
   viewBox="0 0 739.64027 739.7429"
   sodipodi:docname="TSV_Tennis.svg"
   inkscape:version="1.1 (ce6663b3b7, 2021-05-25)"
   inkscape:export-filename="/home/fred/Inkscape/TSV_Tennis_Schild_8.png"
   inkscape:export-xdpi="678.38928"
   inkscape:export-ydpi="678.38928"
   xmlns:inkscape="http://www.inkscape.org/namespaces/inkscape"
   xmlns:sodipodi="http://sodipodi.sourceforge.net/DTD/sodipodi-0.dtd"
   xmlns="http://www.w3.org/2000/svg"
   xmlns:svg="http://www.w3.org/2000/svg"
   xmlns:rdf="http://www.w3.org/1999/02/22-rdf-syntax-ns#"
   xmlns:cc="http://creativecommons.org/ns#"
   xmlns:dc="http://purl.org/dc/elements/1.1/">
  <rect
     style="fill:#000000;fill-opacity:0;stroke:none;stroke-width:11.3386"
     id="rect893"
     width="3185.9258"
     height="1176.4675"
     x="-298.34662"
     y="-146.43713" />
  <metadata
     id="metadata875">
    <rdf:RDF>
      <cc:Work
         rdf:about="">
        <dc:format>image/svg+xml</dc:format>
        <dc:type
           rdf:resource="http://purl.org/dc/dcmitype/StillImage" />
      </cc:Work>
    </rdf:RDF>
  </metadata>
  <defs
     id="defs873">
    <rect
       x="93.839767"
       y="482.38132"
       width="101.13699"
       height="56.167686"
       id="rect960" />
    <linearGradient
       id="linearGradient844"
       inkscape:swatch="solid">
      <stop
         style="stop-color:#ff0000;stop-opacity:1;"
         offset="0"
         id="stop842" />
    </linearGradient>
  </defs>
  <sodipodi:namedview
     pagecolor="#ffffff"
     bordercolor="#666666"
     borderopacity="1"
     objecttolerance="10"
     gridtolerance="10000"
     guidetolerance="10"
     inkscape:pageopacity="0"
     inkscape:pageshadow="2"
     inkscape:window-width="2560"
     inkscape:window-height="1387"
     id="namedview871"
     showgrid="false"
     inkscape:zoom="0.64"
     inkscape:cx="992.96875"
     inkscape:cy="475.78125"
     inkscape:window-x="0"
     inkscape:window-y="0"
     inkscape:window-maximized="1"
     inkscape:current-layer="svg869"
     inkscape:document-rotation="0"
     inkscape:snap-path-clip="true"
     inkscape:snap-path-mask="true"
     fit-margin-top="0"
     fit-margin-left="0"
     fit-margin-right="0"
     fit-margin-bottom="0"
     lock-margins="false"
     units="px"
     inkscape:pagecheckerboard="false">
    <inkscape:grid
       type="xygrid"
       id="grid880"
       originx="-567.97651"
       originy="-365.48659" />
  </sodipodi:namedview>
  <path
     style="fill:#ff0000;fill-opacity:1;stroke-width:0.876687"
     d="M 113.68152,636.28172 C 19.413762,545.81174 -14.175681,423.30749 5.3268818,304.86702 66.518612,-6.9101577 448.46605,-106.38209 653.81569,133.20187 609.20465,128.89649 561.94004,116.01374 523.56447,106.46065 463.03003,90.817218 409.75261,74.805508 344.4112,79.772178 238.92745,89.892108 167.07233,144.03349 123.15272,210.4699 61.222772,312.08477 65.595192,414.19787 109.11229,501.96831 c 61.4444,111.42802 180.56984,181.16778 338.20617,146.82251 50.00606,-10.16798 96.57759,-26.10326 146.48138,-35.93048 21.40528,-4.38526 33.80836,-6.85353 62.68982,-9.74331 -130.96205,162.45618 -378.77827,188.11104 -542.80814,33.16469 z m 232.66745,-18.23381 c -44.06285,-3.4508 -85.31934,-19.86707 -119.95622,-43.9513 -68.59755,-48.8165 -102.45269,-121.45453 -105.8834,-191.1808 -2.82532,-44.72539 8.12467,-78.67853 10.0549,-85.29034 22.36596,-0.0922 48.04976,-0.0531 61.28249,-0.10892 l -0.39629,77.98931 c -0.24611,48.0528 -0.0644,80.85575 0.47986,86.57307 3.26154,34.26611 20.58883,63.75274 48.05108,81.77094 21.58072,14.02416 49.5129,20.59517 69.6968,21.39761 46.92574,1.79023 85.72727,-15.63331 100.32164,-45.04845 4.12435,-8.31265 5.23318,-12.29776 6.34859,-22.81771 1.77556,-16.74516 -1.05143,-30.9553 -8.40806,-42.26378 -10.06211,-15.46733 -18.09934,-21.30925 -56.85484,-41.32551 -24.38146,-12.59245 -32.04968,-17.36562 -38.35941,-23.8773 -5.42057,-5.59405 -8.04729,-10.96333 -8.56192,-17.50159 -1.21069,-15.38038 8.8751,-23.69395 28.74467,-23.69395 7.26037,0 9.11489,0.32394 13.74191,2.40043 8.38025,3.76083 12.53398,9.0109 14.6118,18.46859 l 1.15565,5.26013 h 19.65621 19.65614 l -0.15084,-5.45819 c -0.30284,-10.96066 -6.42084,-25.61744 -14.90518,-35.70798 -8.47954,-10.0849 -23.3629,-18.66356 -37.54534,-21.64083 -8.62025,-1.80963 -33.63495,-1.31128 -41.64272,0.82961 -27.82224,7.43835 -46.27539,28.88414 -47.90945,55.67919 -1.31786,21.6098 5.03605,37.90586 20.35936,52.21613 9.45943,8.8341 14.55367,11.92864 41.46492,25.18844 13.19821,6.50307 26.21705,13.22536 28.93076,14.93843 9.91416,6.25856 16.69725,14.51929 18.48977,22.5178 1.24757,5.56713 -0.3329,16.58324 -3.05035,21.2607 -4.47888,7.70955 -14.63404,14.05755 -28.03923,17.52765 -7.4661,1.93267 -27.08891,2.18854 -35.06755,0.45739 -24.25659,-5.26324 -47.59469,-19.58799 -57.72158,-35.42915 -4.33659,-6.78364 -7.3231,-15.99596 -8.54535,-26.35968 -0.70585,-5.98534 -0.89926,-31.24411 -0.66448,-85.3954 l 0.33783,-77.91952 c 44.49273,-0.11821 82.13297,-0.15011 116.99107,-0.20786 62.2522,-0.0929 99.46485,0.12651 99.46485,0.12651 l -7.41372,-39.04869 c -62.48412,-0.12118 -138.78183,0.51727 -208.63869,-0.002 v -50.16025 -50.15991 c 63.12952,-38.8742 122.37606,-42.50672 171.83109,-35.62075 90.92868,13.35763 170.14022,47.08937 253.80173,55.07633 19.4605,1.81674 20.07344,1.90255 24.97834,2.371 71.34818,121.12132 69.00436,264.99466 -0.67003,380.90873 -0.083,0.11887 -3.70351,0.52953 -7.28121,0.8067 -11.157,0.86403 -12.3484,0.985 -24.039,2.44016 -121.3234,11.70156 -226.64787,65.47051 -308.74482,53.96496 z m 160.86095,-73.18618 c 4.98103,-4.1578 23.23749,-19.56206 32.51438,-30.61976 15.3932,-18.3482 25.35554,-34.73365 37.3119,-61.36827 4.58285,-10.2091 11.53158,-35.22413 13.51571,-48.65625 2.75086,-18.6226 3.32821,-34.84825 1.84061,-51.72466 -2.6328,-29.86843 -9.28324,-53.76899 -22.32099,-80.21709 -13.66749,-27.72553 -32.742,-52.51614 -50.17995,-65.21719 -4.71614,-3.43509 -10.19221,-7.45384 -12.16901,-8.93057 l -3.59405,-2.68494 -29.05534,2.63506 c -15.98039,1.44928 -29.45953,2.88486 -29.95352,3.19018 -1.53971,0.95158 -0.3331,1.81786 11.13501,7.9943 44.68309,24.06534 75.85947,62.83482 89.58621,111.40519 5.44753,19.27527 6.62416,28.33333 6.58267,50.67387 -0.039,21.2957 -0.76229,26.78247 -6.0798,46.15444 -8.38313,30.5397 -24.98532,59.52093 -45.79751,79.94541 l -5.21394,5.11681 -1.50028,-8.62352 c -0.82508,-4.74297 -2.04802,-10.99056 -2.71761,-13.88368 -0.6695,-2.89302 -2.63216,-12.75581 -4.36132,-21.91722 -1.72925,-9.1614 -4.32046,-22.37749 -5.75841,-29.36909 -1.43785,-6.9916 -3.76874,-18.4324 -5.1796,-25.42399 -1.41086,-6.99159 -4.17222,-20.40494 -6.13633,-29.80743 -1.96411,-9.4025 -4.98643,-24.19663 -6.71632,-32.87585 -1.72979,-8.67923 -3.80621,-18.71137 -4.38107,-19.71934 -20.44964,0.0717 -20.47218,0.0801 -40.91096,0.27959 l 45.22227,223.42411 c 44.26021,0.24933 44.31725,0.21989 44.31725,0.21989 z M 146.10821,258.38741 c -0.007,-1.09432 7.31534,-14.53638 12.40985,-22.60316 7.91551,-12.53383 17.7049,-25.36856 26.45112,-34.67977 l 6.79431,-7.23327 8e-5,32.18873 6e-5,32.32684 -22.95476,0.0233 c -12.53582,0 -22.69981,0.10988 -22.70066,-0.0227 z"
     id="path879"
     inkscape:connector-curvature="0"
     sodipodi:nodetypes="cccccccccccccccccsccscssscssssccccsssssssccsssscccccccccccccccssssssscccscsscsscccscsscccsscsscccss" />
  <circle
     style="fill:#ff0000;fill-opacity:0;fill-rule:evenodd;stroke:#000000;stroke-width:3.70578;stroke-miterlimit:4;stroke-dasharray:none;stroke-opacity:1"
     id="path945"
     cx="224.12973"
     cy="348.96216"
     transform="matrix(-0.49840583,0.86694385,0.86694306,0.4984072,0,0)"
     r="0" />
  <text
     xml:space="preserve"
     id="text958"
     style="font-style:normal;font-weight:normal;font-size:40px;line-height:1.25;font-family:sans-serif;letter-spacing:0px;word-spacing:0px;white-space:pre;shape-inside:url(#rect960);fill:#000000;fill-opacity:1;stroke:none"
     transform="translate(-567.9769,-365.48666)" />
</svg>
