<?xml version="1.0" encoding="UTF-8" standalone="no"?>
<svg
   xmlns:osb="http://www.openswatchbook.org/uri/2009/osb"
   xmlns:dc="http://purl.org/dc/elements/1.1/"
   xmlns:cc="http://creativecommons.org/ns#"
   xmlns:rdf="http://www.w3.org/1999/02/22-rdf-syntax-ns#"
   xmlns:svg="http://www.w3.org/2000/svg"
   xmlns="http://www.w3.org/2000/svg"
   xmlns:sodipodi="http://sodipodi.sourceforge.net/DTD/sodipodi-0.dtd"
   xmlns:inkscape="http://www.inkscape.org/namespaces/inkscape"
   version="1.1"
   id="svg869"
   width="2547.21"
   height="887.28143"
   viewBox="0 0 2547.2098 887.28141"
   sodipodi:docname="TSV_Tennis_Schild_print.svg"
   inkscape:version="1.0.2 (e86c870879, 2021-01-15)"
   inkscape:export-filename="/home/fred/Inkscape/TSV_Tennis_Schild_8.png"
   inkscape:export-xdpi="678.38928"
   inkscape:export-ydpi="678.38928">
  <rect
     style="fill:#000000;fill-opacity:0;stroke:none;stroke-width:11.3386"
     id="rect893"
     width="3185.9258"
     height="1176.4675"
     x="-200.01453"
     y="-72.008179" />
  <path
     d="m 997.15063,726.41071 q -4.38187,0 -6.77197,-2.78846 -2.39011,-3.18681 -1.59341,-7.17032 l 44.21695,-206.34582 h -70.90646 q -4.38186,0 -6.77197,-2.78846 -1.99176,-3.18681 -1.19505,-7.17032 l 9.16207,-42.62356 q 0.7967,-4.38186 4.38186,-7.17032 3.58516,-2.78845 7.56867,-2.78845 h 214.31288 q 4.3818,0 6.7719,2.78845 1.5934,2.39011 1.5934,4.78022 0,1.19505 -0.3983,2.3901 l -9.1621,42.62356 q -0.7967,4.38186 -4.3818,7.17032 -3.1869,2.78846 -7.5687,2.78846 h -70.5081 l -44.217,206.34582 q -0.7967,4.38186 -4.3819,7.17032 -3.5851,2.78846 -7.5686,2.78846 z"
     style="font-style:italic;font-variant:normal;font-weight:bold;font-stretch:normal;font-size:398.351px;line-height:1.25;font-family:Rubik;-inkscape-font-specification:'Rubik Bold Italic';letter-spacing:0px;word-spacing:0px;fill:#000000;fill-opacity:1;stroke:none;stroke-width:0.93363"
     id="path870" />
  <path
     d="m 1185.9686,726.41071 q -4.3819,0 -6.772,-2.78846 -1.9918,-3.18681 -1.1951,-7.17032 l 54.9725,-258.92816 q 0.7967,-4.38186 4.3818,-7.17032 3.5852,-2.78845 7.5687,-2.78845 h 186.0299 q 4.3819,0 6.772,2.78845 1.9918,1.99176 1.9918,5.17857 0,0.7967 -0.3984,1.99175 l -7.967,37.445 q -1.1951,4.38186 -4.7802,7.17032 -3.1868,2.78845 -7.5687,2.78845 h -126.6756 l -11.9505,53.77739 h 118.3102 q 4.3819,0 6.772,2.78846 1.5934,2.3901 1.5934,5.17856 0,1.19505 -0.3984,2.39011 l -7.5686,34.65653 q -0.7967,4.38186 -4.3819,7.17032 -3.5852,2.78846 -7.5687,2.78846 h -118.3102 l -11.5522,55.37079 h 129.8624 q 4.3819,0 6.772,2.78846 1.5934,1.99175 1.5934,4.78021 0,1.19505 -0.3984,2.3901 l -7.967,37.445 q -0.7967,4.38186 -4.3818,7.17032 -3.1868,2.78846 -7.5687,2.78846 z"
     style="font-style:italic;font-variant:normal;font-weight:bold;font-stretch:normal;font-size:398.351px;line-height:1.25;font-family:Rubik;-inkscape-font-specification:'Rubik Bold Italic';letter-spacing:0px;word-spacing:0px;fill:#000000;fill-opacity:1;stroke:none;stroke-width:0.93363"
     id="path872" />
  <path
     d="m 1440.1159,726.41071 q -4.3818,0 -6.7719,-2.78846 -1.9918,-3.18681 -1.1951,-7.17032 l 54.9725,-258.92816 q 0.7967,-4.38186 4.3818,-7.17032 3.5852,-2.78845 7.5687,-2.78845 h 42.2252 q 9.5604,0 11.9505,7.56867 l 64.9312,154.16184 32.2665,-151.77174 q 0.7967,-4.38186 4.3818,-7.17032 3.5852,-2.78845 7.5687,-2.78845 h 47.8021 q 4.3819,0 6.772,2.78845 1.9918,1.99176 1.9918,5.17857 0,0.7967 -0.3984,1.99175 l -55.3708,258.52981 q -0.7967,4.38186 -4.3818,7.56867 -3.1869,2.78846 -7.5687,2.78846 h -42.2252 q -5.5769,0 -7.967,-1.99176 -2.3902,-2.39011 -3.9836,-5.57691 l -65.7279,-148.58493 -31.0714,146.19482 q -0.7967,4.38186 -4.3818,7.17032 -3.5852,2.78846 -7.967,2.78846 z"
     style="font-style:italic;font-variant:normal;font-weight:bold;font-stretch:normal;font-size:398.351px;line-height:1.25;font-family:Rubik;-inkscape-font-specification:'Rubik Bold Italic';letter-spacing:0px;word-spacing:0px;fill:#000000;fill-opacity:1;stroke:none;stroke-width:0.93363"
     id="path874" />
  <path
     d="m 1726.9284,726.41071 q -4.3819,0 -6.772,-2.78846 -1.9917,-3.18681 -1.195,-7.17032 l 54.9724,-258.92816 q 0.7967,-4.38186 4.3819,-7.17032 3.5851,-2.78845 7.5686,-2.78845 h 42.2252 q 9.5605,0 11.9506,7.56867 l 64.9312,154.16184 32.2664,-151.77174 q 0.7967,-4.38186 4.3819,-7.17032 3.5851,-2.78845 7.5687,-2.78845 h 47.8021 q 4.3818,0 6.7719,2.78845 1.9918,1.99176 1.9918,5.17857 0,0.7967 -0.3984,1.99175 l -55.3707,258.52981 q -0.7967,4.38186 -4.3819,7.56867 -3.1868,2.78846 -7.5687,2.78846 h -42.2252 q -5.5769,0 -7.967,-1.99176 -2.3901,-2.39011 -3.9835,-5.57691 l -65.7279,-148.58493 -31.0714,146.19482 q -0.7967,4.38186 -4.3819,7.17032 -3.5851,2.78846 -7.967,2.78846 z"
     style="font-style:italic;font-variant:normal;font-weight:bold;font-stretch:normal;font-size:398.351px;line-height:1.25;font-family:Rubik;-inkscape-font-specification:'Rubik Bold Italic';letter-spacing:0px;word-spacing:0px;fill:#000000;fill-opacity:1;stroke:none;stroke-width:0.93363"
     id="path876" />
  <path
     d="m 2013.7409,726.41071 q -4.3819,0 -6.772,-2.78846 -2.3901,-3.18681 -1.5934,-7.17032 l 55.3708,-258.92816 q 0.7967,-4.38186 4.3819,-7.17032 3.5851,-2.78845 7.5686,-2.78845 h 53.7774 q 4.3819,0 6.772,2.78845 1.5934,2.39011 1.5934,4.78022 0,1.19505 -0.3984,2.3901 l -54.9724,258.92816 q -0.7967,4.38186 -4.3819,7.17032 -3.5851,2.78846 -7.5686,2.78846 z"
     style="font-style:italic;font-variant:normal;font-weight:bold;font-stretch:normal;font-size:398.351px;line-height:1.25;font-family:Rubik;-inkscape-font-specification:'Rubik Bold Italic';letter-spacing:0px;word-spacing:0px;fill:#000000;fill-opacity:1;stroke:none;stroke-width:0.93363"
     id="path878" />
  <path
     d="m 2241.5975,730.39422 q -35.0549,0 -60.151,-9.56043 -24.6978,-9.56042 -37.445,-25.49446 -12.3489,-15.93404 -12.3489,-35.45324 0,-3.18681 0.7967,-9.56043 0.7967,-3.58516 3.1868,-5.97526 2.7885,-2.39011 6.3736,-2.39011 h 50.989 q 4.7802,0 7.1703,1.5934 2.7884,1.59341 5.5769,5.57692 2.7885,10.35713 12.7472,17.12909 10.3572,6.77197 28.283,6.77197 22.706,0 36.6482,-7.17032 13.9423,-7.17032 16.7308,-19.5192 0.3983,-1.5934 0.3983,-4.78021 0,-9.95878 -12.3488,-15.53569 -12.3489,-5.97526 -45.4121,-13.94229 -38.64,-8.36537 -58.5576,-25.09611 -19.9175,-17.12909 -19.9175,-44.61531 0,-9.56043 2.3901,-19.5192 7.967,-37.04665 39.4367,-58.15925 31.8681,-21.1126 82.0604,-21.1126 30.2746,0 53.7773,10.75547 23.5028,10.75548 36.25,27.48622 13.1456,16.3324 13.1456,32.66479 0,4.78021 -0.3984,6.77196 -0.7967,3.58516 -3.5851,5.97527 -2.3901,2.39011 -5.9753,2.39011 h -53.379 q -8.7638,0 -11.9506,-6.77197 -0.3983,-9.16208 -9.5604,-15.53569 -9.1621,-6.37362 -23.9011,-6.37362 -17.5274,0 -29.0796,6.37362 -11.1538,6.37361 -13.9423,18.7225 -0.3983,1.99175 -0.3983,5.17856 0,9.56042 11.1538,15.93404 11.5522,5.97526 40.2335,12.34888 44.6153,8.76372 64.9312,25.09611 20.7142,16.3324 20.7142,43.42027 0,9.16207 -2.3901,19.91755 -8.7637,40.6318 -42.6235,61.7444 -33.4615,20.71426 -89.629,20.71426 z"
     style="font-style:italic;font-variant:normal;font-weight:bold;font-stretch:normal;font-size:398.351px;line-height:1.25;font-family:Rubik;-inkscape-font-specification:'Rubik Bold Italic';letter-spacing:0px;word-spacing:0px;fill:#000000;fill-opacity:1;stroke:none;stroke-width:0.93363"
     id="path880" />
  <metadata
     id="metadata875">
    <rdf:RDF>
      <cc:Work
         rdf:about="">
        <dc:format>image/svg+xml</dc:format>
        <dc:type
           rdf:resource="http://purl.org/dc/dcmitype/StillImage" />
        <dc:title></dc:title>
      </cc:Work>
    </rdf:RDF>
  </metadata>
  <defs
     id="defs873">
    <rect
       x="93.839767"
       y="482.38132"
       width="101.13699"
       height="56.167686"
       id="rect960" />
    <linearGradient
       id="linearGradient844"
       osb:paint="solid">
      <stop
         style="stop-color:#ff0000;stop-opacity:1;"
         offset="0"
         id="stop842" />
    </linearGradient>
  </defs>
  <sodipodi:namedview
     pagecolor="#ffffff"
     bordercolor="#666666"
     borderopacity="1"
     objecttolerance="10"
     gridtolerance="10000"
     guidetolerance="10"
     inkscape:pageopacity="0"
     inkscape:pageshadow="2"
     inkscape:window-width="2560"
     inkscape:window-height="1387"
     id="namedview871"
     showgrid="false"
     inkscape:zoom="0.64"
     inkscape:cx="1297.4661"
     inkscape:cy="550.51178"
     inkscape:window-x="0"
     inkscape:window-y="0"
     inkscape:window-maximized="1"
     inkscape:current-layer="svg869"
     inkscape:document-rotation="0"
     inkscape:snap-path-clip="true"
     inkscape:snap-path-mask="true"
     fit-margin-top="75"
     fit-margin-left="100"
     fit-margin-right="100"
     fit-margin-bottom="75"
     lock-margins="false"
     units="px"
     inkscape:pagecheckerboard="false">
    <inkscape:grid
       type="xygrid"
       id="grid880"
       originx="-469.64445"
       originy="-291.05764" />
  </sodipodi:namedview>
  <path
     style="fill:#ff0000;fill-opacity:1;stroke-width:0.876687"
     d="M 212.01362,710.71068 C 117.74586,620.2407 84.156417,497.73645 103.65898,379.29598 164.85071,67.518804 546.79815,-31.953125 752.14779,207.63083 707.53675,203.32545 660.27214,190.4427 621.89657,180.88961 561.36213,165.24618 508.08471,149.23447 442.7433,154.20114 337.25955,164.32107 265.40443,218.46245 221.48482,284.89886 c -61.92995,101.61487 -57.55753,203.72797 -14.04043,291.49841 61.4444,111.42802 180.56984,181.16778 338.20617,146.82251 50.00606,-10.16798 96.57759,-26.10326 146.48138,-35.93048 21.40528,-4.38526 33.80836,-6.85353 62.68982,-9.74331 -130.96205,162.45618 -378.77827,188.11104 -542.80814,33.16469 z m 232.66745,-18.23381 c -44.06285,-3.4508 -85.31934,-19.86707 -119.95622,-43.9513 -68.59755,-48.8165 -102.45269,-121.45453 -105.8834,-191.1808 -2.82532,-44.72539 8.12467,-78.67853 10.0549,-85.29034 22.36596,-0.0922 48.04976,-0.0531 61.28249,-0.10892 l -0.39629,77.98931 c -0.24611,48.0528 -0.0644,80.85575 0.47986,86.57307 3.26154,34.26611 20.58883,63.75274 48.05108,81.77094 21.58072,14.02416 49.5129,20.59517 69.6968,21.39761 46.92574,1.79023 85.72727,-15.63331 100.32164,-45.04845 4.12435,-8.31265 5.23318,-12.29776 6.34859,-22.81771 1.77556,-16.74516 -1.05143,-30.9553 -8.40806,-42.26378 -10.06211,-15.46733 -18.09934,-21.30925 -56.85484,-41.32551 -24.38146,-12.59245 -32.04968,-17.36562 -38.35941,-23.8773 -5.42057,-5.59405 -8.04729,-10.96333 -8.56192,-17.50159 -1.21069,-15.38038 8.8751,-23.69395 28.74467,-23.69395 7.26037,0 9.11489,0.32394 13.74191,2.40043 8.38025,3.76083 12.53398,9.0109 14.6118,18.46859 l 1.15565,5.26013 h 19.65621 19.65614 l -0.15084,-5.45819 c -0.30284,-10.96066 -6.42084,-25.61744 -14.90518,-35.70798 -8.47954,-10.0849 -23.3629,-18.66356 -37.54534,-21.64083 -8.62025,-1.80963 -33.63495,-1.31128 -41.64272,0.82961 -27.82224,7.43835 -46.27539,28.88414 -47.90945,55.67919 -1.31786,21.6098 5.03605,37.90586 20.35936,52.21613 9.45943,8.8341 14.55367,11.92864 41.46492,25.18844 13.19821,6.50307 26.21705,13.22536 28.93076,14.93843 9.91416,6.25856 16.69725,14.51929 18.48977,22.5178 1.24757,5.56713 -0.3329,16.58324 -3.05035,21.2607 -4.47888,7.70955 -14.63404,14.05755 -28.03923,17.52765 -7.4661,1.93267 -27.08891,2.18854 -35.06755,0.45739 -24.25659,-5.26324 -47.59469,-19.58799 -57.72158,-35.42915 -4.33659,-6.78364 -7.3231,-15.99596 -8.54535,-26.35968 -0.70585,-5.98534 -0.89926,-31.24411 -0.66448,-85.3954 l 0.33783,-77.91952 c 44.49273,-0.11821 82.13297,-0.15011 116.99107,-0.20786 62.2522,-0.0929 99.46485,0.12651 99.46485,0.12651 l -7.41372,-39.04869 c -62.48412,-0.12118 -138.78183,0.51727 -208.63869,-0.002 V 282.6896 232.52969 c 63.12952,-38.8742 122.37606,-42.50672 171.83109,-35.62075 90.92868,13.35763 170.14022,47.08937 253.80173,55.07633 19.4605,1.81674 20.07344,1.90255 24.97834,2.371 71.34818,121.12132 69.00436,264.99466 -0.67003,380.90873 -0.083,0.11887 -3.70351,0.52953 -7.28121,0.8067 -11.157,0.86403 -12.3484,0.985 -24.039,2.44016 -121.3234,11.70156 -226.64787,65.47051 -308.74482,53.96496 z m 160.86095,-73.18618 c 4.98103,-4.1578 23.23749,-19.56206 32.51438,-30.61976 15.3932,-18.3482 25.35554,-34.73365 37.3119,-61.36827 4.58285,-10.2091 11.53158,-35.22413 13.51571,-48.65625 2.75086,-18.6226 3.32821,-34.84825 1.84061,-51.72466 -2.6328,-29.86843 -9.28324,-53.76899 -22.32099,-80.21709 -13.66749,-27.72553 -32.742,-52.51614 -50.17995,-65.21719 -4.71614,-3.43509 -10.19221,-7.45384 -12.16901,-8.93057 l -3.59405,-2.68494 -29.05534,2.63506 c -15.98039,1.44928 -29.45953,2.88486 -29.95352,3.19018 -1.53971,0.95158 -0.3331,1.81786 11.13501,7.9943 44.68309,24.06534 75.85947,62.83482 89.58621,111.40519 5.44753,19.27527 6.62416,28.33333 6.58267,50.67387 -0.039,21.2957 -0.76229,26.78247 -6.0798,46.15444 -8.38313,30.5397 -24.98532,59.52093 -45.79751,79.94541 l -5.21394,5.11681 -1.50028,-8.62352 c -0.82508,-4.74297 -2.04802,-10.99056 -2.71761,-13.88368 -0.6695,-2.89302 -2.63216,-12.75581 -4.36132,-21.91722 -1.72925,-9.1614 -4.32046,-22.37749 -5.75841,-29.36909 -1.43785,-6.9916 -3.76874,-18.4324 -5.1796,-25.42399 -1.41086,-6.99159 -4.17222,-20.40494 -6.13633,-29.80743 -1.96411,-9.4025 -4.98643,-24.19663 -6.71632,-32.87585 -1.72979,-8.67923 -3.80621,-18.71137 -4.38107,-19.71934 -20.44964,0.0717 -20.47218,0.0801 -40.91096,0.27959 l 45.22227,223.42411 c 44.26021,0.24933 44.31725,0.21989 44.31725,0.21989 z M 244.44031,332.81637 c -0.007,-1.09432 7.31534,-14.53638 12.40985,-22.60316 7.91551,-12.53383 17.7049,-25.36856 26.45112,-34.67977 l 6.79431,-7.23327 8e-5,32.18873 6e-5,32.32684 -22.95476,0.0233 c -12.53582,0 -22.69981,0.10988 -22.70066,-0.0227 z"
     id="path879"
     inkscape:connector-curvature="0"
     sodipodi:nodetypes="cccccccccccccccccsccscssscssssccccsssssssccsssscccccccccccccccssssssscccscsscsscccscsscccsscsscccss" />
  <path
     d="m 913.81215,274.8609 q -1.4,0 -2.52,-0.98 -0.98,-1.12 -0.98,-2.52 v -72.52 h -24.92 q -1.4,0 -2.52,-0.98 -0.98,-1.12 -0.98,-2.52 v -14.98 q 0,-1.54 0.98,-2.52 1.12,-0.98 2.52,-0.98 h 75.32 q 1.54,0 2.52,0.98 0.98,0.98 0.98,2.52 v 14.98 q 0,1.54 -0.98,2.52 -0.98,0.98 -2.52,0.98 h -24.92 v 72.52 q 0,1.4 -0.98,2.52 -0.98,0.98 -2.52,0.98 z"
     style="font-style:normal;font-variant:normal;font-weight:bold;font-stretch:normal;font-size:140px;line-height:1.25;font-family:Rubik;-inkscape-font-specification:'Rubik Bold';letter-spacing:2px;word-spacing:0px;fill:#000000;fill-opacity:1;stroke:none"
     id="path883" />
  <path
     d="m 1015.2119,276.2609 q -13.3,0 -22.81998,-3.92 -9.52,-3.92 -14.42,-10.22 -4.76,-6.44 -5.04,-14 0,-1.12 0.84,-1.96 0.98,-0.98 2.24,-0.98 h 17.64 q 1.68,0 2.66,0.7 1.12,0.56 2.24,1.82 1.81998,3.64 5.87998,6.02 4.06,2.38 10.78,2.38 7.98,0 12.18,-2.52 4.2,-2.52 4.2,-6.86 0,-3.08 -2.24,-5.04 -2.1,-1.96 -6.72,-3.5 -4.62,-1.54 -13.72,-3.5 -16.79998,-3.5 -25.19998,-10.22 -8.26,-6.86 -8.26,-19.46 0,-8.54 4.76,-15.26 4.76,-6.72 13.58,-10.5 8.81998,-3.78 20.57998,-3.78 12.18,0 21.14,4.2 8.96,4.2 13.58,10.64 4.76,6.3 5.04,12.46 0,1.26 -0.84,2.1 -0.84,0.84 -2.1,0.84 h -18.48 q -1.68,0 -2.8,-0.56 -0.98,-0.56 -1.82,-1.82 -0.84,-3.22 -4.62,-5.46 -3.64,-2.24 -9.1,-2.24 -6.3,0 -9.66,2.24 -3.36,2.24 -3.36,6.58 0,2.94 1.82,4.9 1.96,1.96 6.16,3.64 4.34,1.54 12.32,3.22 13.02,2.38 20.72,6.02 7.84,3.5 11.48,9.24 3.64,5.6 3.64,14.14 0,9.38 -5.46,16.38 -5.32,6.86 -14.98,10.64 -9.52,3.64 -21.84,3.64 z"
     style="font-style:normal;font-variant:normal;font-weight:bold;font-stretch:normal;font-size:140px;line-height:1.25;font-family:Rubik;-inkscape-font-specification:'Rubik Bold';letter-spacing:2px;word-spacing:0px;fill:#000000;fill-opacity:1;stroke:none"
     id="path885" />
  <path
     d="m 1098.1316,274.8609 q -4.48,0 -5.74,-4.2 l -28.56,-89.6 -0.28,-1.26 q 0,-1.12 0.84,-1.96 0.98,-0.98 2.24,-0.98 h 17.36 q 1.96,0 3.22,1.12 1.4,1.12 1.82,2.52 l 19.88,64.68 19.74,-64.68 q 0.42,-1.4 1.68,-2.52 1.4,-1.12 3.36,-1.12 h 17.5 q 1.12,0 1.96,0.98 0.98,0.84 0.98,1.96 l -0.28,1.26 -28.56,89.6 q -1.26,4.2 -5.74,4.2 z"
     style="font-style:normal;font-variant:normal;font-weight:bold;font-stretch:normal;font-size:140px;line-height:1.25;font-family:Rubik;-inkscape-font-specification:'Rubik Bold';letter-spacing:2px;word-spacing:0px;fill:#000000;fill-opacity:1;stroke:none"
     id="path887" />
  <path
     d="M 1155.7114,274.8609 Z"
     style="font-style:normal;font-variant:normal;font-weight:bold;font-stretch:normal;font-size:140px;line-height:1.25;font-family:Rubik;-inkscape-font-specification:'Rubik Bold';letter-spacing:2px;word-spacing:0px;fill:#000000;fill-opacity:1;stroke:none"
     id="path889" />
  <path
     d="m 1200.8313,274.8609 q -1.4,0 -2.52,-0.98 -0.98,-1.12 -0.98,-2.52 v -91 q 0,-1.54 0.98,-2.52 1.12,-0.98 2.52,-0.98 h 42.7 q 17.64,0 26.18,7.28 8.68,7.14 8.68,20.44 0,7 -3.64,11.9 -3.5,4.76 -7.98,7 5.74,2.66 9.66,8.54 3.92,5.88 3.92,13.16 0,14 -9.24,21.84 -9.24,7.84 -26.32,7.84 z m 39.9,-59.08 q 5.6,0 8.54,-2.8 2.94,-2.94 2.94,-7.7 0,-4.62 -2.94,-7.42 -2.94,-2.8 -8.54,-2.8 h -18.2 v 20.72 z m 1.26,40.88 q 5.74,0 8.96,-3.36 3.22,-3.36 3.22,-8.12 0,-5.04 -3.22,-8.26 -3.22,-3.36 -8.96,-3.36 h -19.46 v 23.1 z"
     style="font-style:normal;font-variant:normal;font-weight:bold;font-stretch:normal;font-size:140px;line-height:1.25;font-family:Rubik;-inkscape-font-specification:'Rubik Bold';letter-spacing:2px;word-spacing:0px;fill:#000000;fill-opacity:1;stroke:none"
     id="path891" />
  <path
     d="m 1290.891,274.8609 q -1.12,0 -2.1,-0.84 -0.84,-0.98 -0.84,-2.1 0,-0.84 0.14,-1.26 l 32.9,-89.88 q 0.42,-1.68 1.82,-2.8 1.4,-1.12 3.64,-1.12 h 20.72 q 2.24,0 3.64,1.12 1.4,1.12 1.82,2.8 l 32.76,89.88 0.28,1.26 q 0,1.12 -0.98,2.1 -0.84,0.84 -2.1,0.84 h -17.22 q -3.36,0 -4.48,-2.94 l -5.46,-14.28 h -37.38 l -5.32,14.28 q -1.12,2.94 -4.62,2.94 z m 58.94,-37.38 -13.02,-36.96 -13.02,36.96 z"
     style="font-style:normal;font-variant:normal;font-weight:bold;font-stretch:normal;font-size:140px;line-height:1.25;font-family:Rubik;-inkscape-font-specification:'Rubik Bold';letter-spacing:2px;word-spacing:0px;fill:#000000;fill-opacity:1;stroke:none"
     id="path893" />
  <path
     d="m 1402.231,274.8609 q -1.4,0 -2.52,-0.98 -0.98,-1.12 -0.98,-2.52 v -91 q 0,-1.54 0.98,-2.52 1.12,-0.98 2.52,-0.98 h 36.4 q 20.58,0 31.92,9.8 11.34,9.8 11.9,28.42 0.14,4.06 0.14,10.78 0,6.72 -0.14,10.64 -0.7,19.46 -11.62,28.98 -10.78,9.38 -31.5,9.38 z m 36.4,-20.16 q 9.24,0 13.58,-4.34 4.34,-4.48 4.62,-14.14 0.28,-4.06 0.28,-10.5 0,-6.44 -0.28,-10.36 -0.28,-9.38 -5.04,-13.86 -4.62,-4.48 -13.86,-4.48 h -14 v 57.68 z"
     style="font-style:normal;font-variant:normal;font-weight:bold;font-stretch:normal;font-size:140px;line-height:1.25;font-family:Rubik;-inkscape-font-specification:'Rubik Bold';letter-spacing:2px;word-spacing:0px;fill:#000000;fill-opacity:1;stroke:none"
     id="path895" />
  <path
     d="M 1491.1709,274.8609 Z"
     style="font-style:normal;font-variant:normal;font-weight:bold;font-stretch:normal;font-size:140px;line-height:1.25;font-family:Rubik;-inkscape-font-specification:'Rubik Bold';letter-spacing:2px;word-spacing:0px;fill:#000000;fill-opacity:1;stroke:none"
     id="path897" />
  <path
     d="m 1573.9508,276.2609 q -19.74,0 -30.94,-9.66 -11.06,-9.66 -11.06,-29.12 v -57.12 q 0,-1.54 0.98,-2.52 1.12,-0.98 2.52,-0.98 h 18.06 q 1.54,0 2.52,0.98 1.12,0.98 1.12,2.52 v 56.98 q 0,9.1 4.2,13.72 4.34,4.48 12.46,4.48 7.98,0 12.32,-4.62 4.34,-4.62 4.34,-13.58 v -56.98 q 0,-1.54 0.98,-2.52 1.12,-0.98 2.52,-0.98 h 18.2 q 1.54,0 2.52,0.98 0.98,0.98 0.98,2.52 v 57.12 q 0,19.46 -11.2,29.12 -11.06,9.66 -30.52,9.66 z m -23.24,-106.4 q -1.4,0 -2.24,-0.84 -0.84,-0.98 -0.84,-2.38 v -12.74 q 0,-1.4 0.84,-2.24 0.84,-0.98 2.24,-0.98 h 12.88 q 1.4,0 2.24,0.98 0.98,0.84 0.98,2.24 v 12.74 q 0,1.4 -0.98,2.38 -0.84,0.84 -2.24,0.84 z m 33.18,0 q -1.4,0 -2.38,-0.84 -0.84,-0.98 -0.84,-2.38 v -12.74 q 0,-1.4 0.84,-2.24 0.98,-0.98 2.38,-0.98 h 12.88 q 1.4,0 2.24,0.98 0.98,0.84 0.98,2.24 v 12.74 q 0,1.4 -0.98,2.38 -0.84,0.84 -2.24,0.84 z"
     style="font-style:normal;font-variant:normal;font-weight:bold;font-stretch:normal;font-size:140px;line-height:1.25;font-family:Rubik;-inkscape-font-specification:'Rubik Bold';letter-spacing:2px;word-spacing:0px;fill:#000000;fill-opacity:1;stroke:none"
     id="path899" />
  <path
     d="m 1639.7906,274.8609 q -1.4,0 -2.52,-0.98 -0.98,-1.12 -0.98,-2.52 v -91 q 0,-1.54 0.98,-2.52 1.12,-0.98 2.52,-0.98 h 42.7 q 17.64,0 26.18,7.28 8.68,7.14 8.68,20.44 0,7 -3.64,11.9 -3.5,4.76 -7.98,7 5.74,2.66 9.66,8.54 3.92,5.88 3.92,13.16 0,14 -9.24,21.84 -9.24,7.84 -26.32,7.84 z m 39.9,-59.08 q 5.6,0 8.54,-2.8 2.94,-2.94 2.94,-7.7 0,-4.62 -2.94,-7.42 -2.94,-2.8 -8.54,-2.8 h -18.2 v 20.72 z m 1.26,40.88 q 5.74,0 8.96,-3.36 3.22,-3.36 3.22,-8.12 0,-5.04 -3.22,-8.26 -3.22,-3.36 -8.96,-3.36 h -19.46 v 23.1 z"
     style="font-style:normal;font-variant:normal;font-weight:bold;font-stretch:normal;font-size:140px;line-height:1.25;font-family:Rubik;-inkscape-font-specification:'Rubik Bold';letter-spacing:2px;word-spacing:0px;fill:#000000;fill-opacity:1;stroke:none"
     id="path901" />
  <path
     d="m 1740.3504,274.8609 q -1.4,0 -2.52,-0.98 -0.98,-1.12 -0.98,-2.52 v -91 q 0,-1.54 0.98,-2.52 1.12,-0.98 2.52,-0.98 h 65.38 q 1.54,0 2.52,0.98 0.98,0.98 0.98,2.52 v 13.16 q 0,1.4 -0.98,2.52 -0.98,0.98 -2.52,0.98 h -44.66 v 18.9 h 41.58 q 1.54,0 2.52,1.12 0.98,0.98 0.98,2.52 v 12.18 q 0,1.4 -0.98,2.52 -0.98,0.98 -2.52,0.98 h -41.58 v 19.46 h 45.78 q 1.54,0 2.52,0.98 0.98,0.98 0.98,2.52 v 13.16 q 0,1.4 -0.98,2.52 -0.98,0.98 -2.52,0.98 z"
     style="font-style:normal;font-variant:normal;font-weight:bold;font-stretch:normal;font-size:140px;line-height:1.25;font-family:Rubik;-inkscape-font-specification:'Rubik Bold';letter-spacing:2px;word-spacing:0px;fill:#000000;fill-opacity:1;stroke:none"
     id="path903" />
  <path
     d="m 1831.8104,274.8609 q -1.4,0 -2.52,-0.98 -0.98,-1.12 -0.98,-2.52 v -91 q 0,-1.54 0.98,-2.52 1.12,-0.98 2.52,-0.98 h 38.08 q 18.34,0 28.56,8.4 10.36,8.26 10.36,23.52 0,9.8 -4.62,16.66 -4.62,6.86 -12.74,10.5 l 19.18,34.44 q 0.42,0.84 0.42,1.54 0,1.12 -0.98,2.1 -0.84,0.84 -1.96,0.84 h -18.62 q -4.06,0 -5.74,-3.78 l -15.96,-30.8 h -14.28 v 31.08 q 0,1.54 -1.12,2.52 -0.98,0.98 -2.52,0.98 z m 37.8,-54.46 q 6.44,0 9.8,-3.08 3.36,-3.22 3.36,-8.82 0,-5.6 -3.36,-8.82 -3.22,-3.36 -9.8,-3.36 h -16.1 v 24.08 z"
     style="font-style:normal;font-variant:normal;font-weight:bold;font-stretch:normal;font-size:140px;line-height:1.25;font-family:Rubik;-inkscape-font-specification:'Rubik Bold';letter-spacing:2px;word-spacing:0px;fill:#000000;fill-opacity:1;stroke:none"
     id="path905" />
  <path
     d="m 1930.5504,274.8609 q -1.4,0 -2.52,-0.98 -0.98,-1.12 -0.98,-2.52 v -91 q 0,-1.54 0.98,-2.52 1.12,-0.98 2.52,-0.98 h 17.64 q 1.54,0 2.52,0.98 0.98,0.98 0.98,2.52 v 31.08 l 25.9,-31.92 q 1.68,-2.66 5.46,-2.66 h 20.16 q 1.26,0 2.1,0.98 0.84,0.84 0.84,1.96 0,0.98 -0.42,1.68 l -33.6,42.28 36.12,46.48 q 0.56,0.56 0.56,1.68 0,1.12 -0.84,2.1 -0.84,0.84 -2.1,0.84 h -20.86 q -3.36,0 -5.6,-2.8 l -27.72,-34.58 v 33.88 q 0,1.54 -0.98,2.52 -0.98,0.98 -2.52,0.98 z"
     style="font-style:normal;font-variant:normal;font-weight:bold;font-stretch:normal;font-size:140px;line-height:1.25;font-family:Rubik;-inkscape-font-specification:'Rubik Bold';letter-spacing:2px;word-spacing:0px;fill:#000000;fill-opacity:1;stroke:none"
     id="path907" />
  <path
     d="m 2025.3702,274.8609 q -1.4,0 -2.52,-0.98 -0.98,-1.12 -0.98,-2.52 v -91 q 0,-1.54 0.98,-2.52 1.12,-0.98 2.52,-0.98 h 18.76 q 1.54,0 2.52,0.98 1.12,0.98 1.12,2.52 v 91 q 0,1.54 -1.12,2.52 -0.98,0.98 -2.52,0.98 z"
     style="font-style:normal;font-variant:normal;font-weight:bold;font-stretch:normal;font-size:140px;line-height:1.25;font-family:Rubik;-inkscape-font-specification:'Rubik Bold';letter-spacing:2px;word-spacing:0px;fill:#000000;fill-opacity:1;stroke:none"
     id="path909" />
  <path
     d="m 2072.7301,274.8609 q -1.4,0 -2.52,-0.98 -0.98,-1.12 -0.98,-2.52 v -91 q 0,-1.54 0.98,-2.52 1.12,-0.98 2.52,-0.98 h 14.84 q 3.5,0 4.76,2.66 l 34.16,53.76 v -52.92 q 0,-1.54 0.98,-2.52 1.12,-0.98 2.52,-0.98 h 16.8 q 1.54,0 2.52,0.98 0.98,0.98 0.98,2.52 v 90.86 q 0,1.54 -0.98,2.66 -0.98,0.98 -2.52,0.98 h -14.98 q -3.08,0 -4.62,-2.66 l -34.16,-51.8 v 50.96 q 0,1.4 -0.98,2.52 -0.98,0.98 -2.52,0.98 z"
     style="font-style:normal;font-variant:normal;font-weight:bold;font-stretch:normal;font-size:140px;line-height:1.25;font-family:Rubik;-inkscape-font-specification:'Rubik Bold';letter-spacing:2px;word-spacing:0px;fill:#000000;fill-opacity:1;stroke:none"
     id="path911" />
  <path
     d="m 2212.3501,276.2609 q -20.16,0 -31.5,-9.8 -11.34,-9.94 -12.04,-28.14 -0.14,-4.06 -0.14,-12.88 0,-8.82 0.14,-12.88 0.7,-17.78 12.18,-27.44 11.62,-9.66 31.36,-9.66 13.3,0 23.1,4.34 9.94,4.34 15.12,11.06 5.32,6.72 5.6,13.86 0,1.26 -0.98,2.1 -0.84,0.84 -2.1,0.84 h -20.44 q -1.4,0 -2.24,-0.42 -0.84,-0.42 -1.4,-1.54 -1.82,-4.06 -5.74,-7 -3.92,-3.08 -10.92,-3.08 -16.66,0 -17.5,17.64 -0.14,3.92 -0.14,12.18 0,8.12 0.14,12.18 0.84,18.48 17.92,18.48 8.26,0 13.16,-4.2 5.04,-4.34 5.04,-13.16 v -2.66 h -13.16 q -1.54,0 -2.52,-0.98 -0.98,-1.12 -0.98,-2.66 v -10.36 q 0,-1.54 0.98,-2.52 0.98,-1.12 2.52,-1.12 h 35.28 q 1.54,0 2.52,1.12 0.98,0.98 0.98,2.52 v 15.96 q 0,11.9 -5.46,20.58 -5.46,8.54 -15.54,13.16 -9.94,4.48 -23.24,4.48 z"
     style="font-style:normal;font-variant:normal;font-weight:bold;font-stretch:normal;font-size:140px;line-height:1.25;font-family:Rubik;-inkscape-font-specification:'Rubik Bold';letter-spacing:2px;word-spacing:0px;fill:#000000;fill-opacity:1;stroke:none"
     id="path913" />
  <path
     d="m 2278.1899,274.8609 q -1.4,0 -2.52,-0.98 -0.98,-1.12 -0.98,-2.52 v -91 q 0,-1.54 0.98,-2.52 1.12,-0.98 2.52,-0.98 h 65.38 q 1.54,0 2.52,0.98 0.98,0.98 0.98,2.52 v 13.16 q 0,1.4 -0.98,2.52 -0.98,0.98 -2.52,0.98 h -44.66 v 18.9 h 41.58 q 1.54,0 2.52,1.12 0.98,0.98 0.98,2.52 v 12.18 q 0,1.4 -0.98,2.52 -0.98,0.98 -2.52,0.98 h -41.58 v 19.46 h 45.78 q 1.54,0 2.52,0.98 0.98,0.98 0.98,2.52 v 13.16 q 0,1.4 -0.98,2.52 -0.98,0.98 -2.52,0.98 z"
     style="font-style:normal;font-variant:normal;font-weight:bold;font-stretch:normal;font-size:140px;line-height:1.25;font-family:Rubik;-inkscape-font-specification:'Rubik Bold';letter-spacing:2px;word-spacing:0px;fill:#000000;fill-opacity:1;stroke:none"
     id="path915" />
  <path
     d="m 2369.65,274.8609 q -1.4,0 -2.52,-0.98 -0.98,-1.12 -0.98,-2.52 v -91 q 0,-1.54 0.98,-2.52 1.12,-0.98 2.52,-0.98 h 14.84 q 3.5,0 4.76,2.66 l 34.16,53.76 v -52.92 q 0,-1.54 0.98,-2.52 1.12,-0.98 2.52,-0.98 h 16.8 q 1.54,0 2.52,0.98 0.98,0.98 0.98,2.52 v 90.86 q 0,1.54 -0.98,2.66 -0.98,0.98 -2.52,0.98 h -14.98 q -3.08,0 -4.62,-2.66 l -34.16,-51.8 v 50.96 q 0,1.4 -0.98,2.52 -0.98,0.98 -2.52,0.98 z"
     style="font-style:normal;font-variant:normal;font-weight:bold;font-stretch:normal;font-size:140px;line-height:1.25;font-family:Rubik;-inkscape-font-specification:'Rubik Bold';letter-spacing:2px;word-spacing:0px;fill:#000000;fill-opacity:1;stroke:none"
     id="path917" />
  <circle
     style="fill:#ff0000;fill-opacity:0;fill-rule:evenodd;stroke:#000000;stroke-width:3.70578;stroke-miterlimit:4;stroke-dasharray:none;stroke-opacity:1"
     id="path945"
     cx="239.64598"
     cy="471.3064"
     transform="matrix(-0.49840583,0.86694385,0.86694306,0.4984072,0,0)"
     r="0" />
  <text
     xml:space="preserve"
     id="text958"
     style="font-style:normal;font-weight:normal;font-size:40px;line-height:1.25;font-family:sans-serif;letter-spacing:0px;word-spacing:0px;white-space:pre;shape-inside:url(#rect960);fill:#000000;fill-opacity:1;stroke:none;"
     transform="translate(-469.6448,-291.0577)" />
  <path
     d="m 985.1997,726.53979 q -4.38186,0 -6.77197,-2.78845 -2.39011,-3.18681 -1.5934,-7.17032 l 44.21697,-206.34583 h -70.90649 q -4.38186,0 -6.77197,-2.78845 -1.99175,-3.18681 -1.19505,-7.17032 l 9.16207,-42.62356 q 0.7967,-4.38186 4.38186,-7.17032 3.58516,-2.78845 7.56867,-2.78845 h 214.31281 q 4.3819,0 6.772,2.78845 1.5934,2.39011 1.5934,4.78021 0,1.19506 -0.3983,2.39011 l -9.1621,42.62356 q -0.7967,4.38186 -4.3819,7.17032 -3.1868,2.78845 -7.5686,2.78845 h -70.5082 l -44.2169,206.34583 q -0.7967,4.38186 -4.3819,7.17032 -3.5852,2.78845 -7.5687,2.78845 z"
     style="font-style:italic;font-variant:normal;font-weight:bold;font-stretch:normal;font-size:398.351px;line-height:1.25;font-family:Rubik;-inkscape-font-specification:'Rubik Bold Italic';letter-spacing:0px;word-spacing:0px;fill:#ff0000;fill-opacity:1;stroke:none;stroke-width:0.93363"
     id="path920" />
  <path
     d="m 1174.0176,726.53979 q -4.3818,0 -6.7719,-2.78845 -1.9918,-3.18681 -1.1951,-7.17032 l 54.9725,-258.92816 q 0.7967,-4.38186 4.3818,-7.17032 3.5852,-2.78845 7.5687,-2.78845 h 186.0299 q 4.3819,0 6.772,2.78845 1.9917,1.99176 1.9917,5.17857 0,0.7967 -0.3983,1.99175 l -7.967,37.445 q -1.1951,4.38186 -4.7803,7.17031 -3.1868,2.78846 -7.5686,2.78846 h -126.6756 l -11.9506,53.77739 h 118.3103 q 4.3818,0 6.7719,2.78846 1.5934,2.3901 1.5934,5.17856 0,1.19505 -0.3983,2.3901 l -7.5687,34.65654 q -0.7967,4.38186 -4.3818,7.17032 -3.5852,2.78846 -7.5687,2.78846 h -118.3103 l -11.5521,55.37079 h 129.8624 q 4.3819,0 6.772,2.78846 1.5934,1.99175 1.5934,4.78021 0,1.19505 -0.3984,2.3901 l -7.967,37.445 q -0.7967,4.38186 -4.3819,7.17032 -3.1868,2.78845 -7.5686,2.78845 z"
     style="font-style:italic;font-variant:normal;font-weight:bold;font-stretch:normal;font-size:398.351px;line-height:1.25;font-family:Rubik;-inkscape-font-specification:'Rubik Bold Italic';letter-spacing:0px;word-spacing:0px;fill:#ff0000;fill-opacity:1;stroke:none;stroke-width:0.93363"
     id="path922" />
  <path
     d="m 1428.165,726.53979 q -4.3818,0 -6.7719,-2.78845 -1.9918,-3.18681 -1.1951,-7.17032 l 54.9724,-258.92816 q 0.7967,-4.38186 4.3819,-7.17032 3.5852,-2.78845 7.5687,-2.78845 h 42.2252 q 9.5604,0 11.9505,7.56866 l 64.9312,154.16185 32.2665,-151.77174 q 0.7967,-4.38186 4.3818,-7.17032 3.5852,-2.78845 7.5687,-2.78845 h 47.8021 q 4.3819,0 6.772,2.78845 1.9917,1.99176 1.9917,5.17857 0,0.7967 -0.3983,1.99175 l -55.3708,258.52981 q -0.7967,4.38186 -4.3819,7.56867 -3.1868,2.78845 -7.5686,2.78845 h -42.2253 q -5.5769,0 -7.967,-1.99175 -2.3901,-2.39011 -3.9835,-5.57691 L 1519.3874,570.3862 1488.316,716.58102 q -0.7967,4.38186 -4.3818,7.17032 -3.5852,2.78845 -7.9671,2.78845 z"
     style="font-style:italic;font-variant:normal;font-weight:bold;font-stretch:normal;font-size:398.351px;line-height:1.25;font-family:Rubik;-inkscape-font-specification:'Rubik Bold Italic';letter-spacing:0px;word-spacing:0px;fill:#ff0000;fill-opacity:1;stroke:none;stroke-width:0.93363"
     id="path924" />
  <path
     d="m 1714.9775,726.53979 q -4.3819,0 -6.772,-2.78845 -1.9918,-3.18681 -1.1951,-7.17032 l 54.9725,-258.92816 q 0.7967,-4.38186 4.3818,-7.17032 3.5852,-2.78845 7.5687,-2.78845 h 42.2252 q 9.5604,0 11.9505,7.56866 l 64.9313,154.16185 32.2664,-151.77174 q 0.7967,-4.38186 4.3819,-7.17032 3.5851,-2.78845 7.5686,-2.78845 h 47.8021 q 4.3819,0 6.772,2.78845 1.9918,1.99176 1.9918,5.17857 0,0.7967 -0.3984,1.99175 l -55.3708,258.52981 q -0.7967,4.38186 -4.3818,7.56867 -3.1868,2.78845 -7.5687,2.78845 h -42.2252 q -5.5769,0 -7.967,-1.99175 -2.3901,-2.39011 -3.9835,-5.57691 l -65.728,-148.58493 -31.0713,146.19482 q -0.7967,4.38186 -4.3819,7.17032 -3.5852,2.78845 -7.967,2.78845 z"
     style="font-style:italic;font-variant:normal;font-weight:bold;font-stretch:normal;font-size:398.351px;line-height:1.25;font-family:Rubik;-inkscape-font-specification:'Rubik Bold Italic';letter-spacing:0px;word-spacing:0px;fill:#ff0000;fill-opacity:1;stroke:none;stroke-width:0.93363"
     id="path926" />
  <path
     d="m 2001.79,726.53979 q -4.3819,0 -6.772,-2.78845 -2.3901,-3.18681 -1.5934,-7.17032 l 55.3708,-258.92816 q 0.7967,-4.38186 4.3818,-7.17032 3.5852,-2.78845 7.5687,-2.78845 h 53.7774 q 4.3819,0 6.772,2.78845 1.5934,2.39011 1.5934,4.78021 0,1.19506 -0.3984,2.39011 l -54.9724,258.92816 q -0.7967,4.38186 -4.3819,7.17032 -3.5851,2.78845 -7.5687,2.78845 z"
     style="font-style:italic;font-variant:normal;font-weight:bold;font-stretch:normal;font-size:398.351px;line-height:1.25;font-family:Rubik;-inkscape-font-specification:'Rubik Bold Italic';letter-spacing:0px;word-spacing:0px;fill:#ff0000;fill-opacity:1;stroke:none;stroke-width:0.93363"
     id="path928" />
  <path
     d="m 2229.6466,730.52331 q -35.0549,0 -60.151,-9.56043 -24.6978,-9.56042 -37.445,-25.49446 -12.3489,-15.93404 -12.3489,-35.45324 0,-3.18681 0.7967,-9.56043 0.7967,-3.58516 3.1868,-5.97526 2.7884,-2.39011 6.3736,-2.39011 h 50.9889 q 4.7802,0 7.1704,1.5934 2.7884,1.59341 5.5769,5.57692 2.7884,10.35712 12.7472,17.12909 10.3571,6.77197 28.2829,6.77197 22.706,0 36.6483,-7.17032 13.9423,-7.17032 16.7308,-19.5192 0.3983,-1.5934 0.3983,-4.78021 0,-9.95878 -12.3489,-15.53569 -12.3489,-5.97527 -45.412,-13.94229 -38.64,-8.36537 -58.5576,-25.09611 -19.9175,-17.12909 -19.9175,-44.61531 0,-9.56043 2.3901,-19.5192 7.967,-37.04665 39.4367,-58.15925 31.8681,-21.1126 82.0603,-21.1126 30.2747,0 53.7774,10.75547 23.5027,10.75548 36.25,27.48622 13.1455,16.33239 13.1455,32.66479 0,4.78021 -0.3983,6.77196 -0.7967,3.58516 -3.5852,5.97527 -2.3901,2.3901 -5.9752,2.3901 h -53.3791 q -8.7637,0 -11.9505,-6.77196 -0.3984,-9.16208 -9.5604,-15.53569 -9.1621,-6.37362 -23.9011,-6.37362 -17.5274,0 -29.0796,6.37362 -11.1538,6.37361 -13.9423,18.7225 -0.3983,1.99175 -0.3983,5.17856 0,9.56042 11.1538,15.93404 11.5522,5.97526 40.2334,12.34888 44.6153,8.76372 64.9312,25.09611 20.7143,16.3324 20.7143,43.42026 0,9.16208 -2.3901,19.91756 -8.7637,40.6318 -42.6236,61.7444 -33.4614,20.71426 -89.6289,20.71426 z"
     style="font-style:italic;font-variant:normal;font-weight:bold;font-stretch:normal;font-size:398.351px;line-height:1.25;font-family:Rubik;-inkscape-font-specification:'Rubik Bold Italic';letter-spacing:0px;word-spacing:0px;fill:#ff0000;fill-opacity:1;stroke:none;stroke-width:0.93363"
     id="path930" />
  <path
     d="m 2194.9565,349.36429 q -0.64,0 -1.152,-0.448 -0.448,-0.512 -0.448,-1.152 v -30.464 l -8.768,6.72 q -0.448,0.384 -0.96,0.384 -0.704,0 -1.28,-0.768 l -3.776,-4.928 q -0.32,-0.512 -0.32,-0.96 0,-0.896 0.768,-1.344 l 14.72,-11.392 q 0.704,-0.448 1.536,-0.448 h 8 q 0.704,0 1.152,0.448 0.448,0.448 0.448,1.152 v 41.6 q 0,0.64 -0.448,1.152 -0.448,0.448 -1.152,0.448 z"
     style="font-style:normal;font-variant:normal;font-weight:bold;font-stretch:normal;font-size:64px;line-height:1.25;font-family:Rubik;-inkscape-font-specification:'Rubik Bold';letter-spacing:0px;word-spacing:0px;fill:#000000;fill-opacity:1;stroke:none"
     id="path933" />
  <path
     d="m 2230.6685,350.00429 q -6.144,0 -10.368,-1.856 -4.224,-1.856 -6.336,-5.056 -2.048,-3.2 -2.048,-7.168 0,-3.392 1.664,-6.08 1.728,-2.752 4.544,-4.288 -2.24,-1.472 -3.456,-3.712 -1.152,-2.24 -1.152,-5.12 0,-3.648 1.856,-6.528 1.92,-2.944 5.76,-4.608 3.84,-1.664 9.536,-1.664 8.384,0 12.672,3.52 4.352,3.52 4.352,9.216 0,5.824 -4.48,8.896 2.88,1.408 4.544,4.16 1.728,2.752 1.728,6.272 0,3.968 -2.112,7.168 -2.112,3.136 -6.4,4.992 -4.224,1.856 -10.304,1.856 z m 0,-27.648 q 2.816,-0.064 4.608,-1.472 1.792,-1.408 1.792,-3.648 0,-2.304 -1.792,-3.712 -1.792,-1.408 -4.608,-1.408 -2.816,0 -4.608,1.408 -1.792,1.408 -1.792,3.712 0,2.304 1.792,3.712 1.792,1.408 4.608,1.408 z m 0,19.456 q 3.136,0 5.184,-1.6 2.048,-1.6 2.048,-4.288 0,-2.688 -2.048,-4.224 -2.048,-1.6 -5.184,-1.6 -3.136,0 -5.248,1.6 -2.048,1.536 -2.048,4.224 0,2.688 2.048,4.288 2.112,1.6 5.248,1.6 z"
     style="font-style:normal;font-variant:normal;font-weight:bold;font-stretch:normal;font-size:64px;line-height:1.25;font-family:Rubik;-inkscape-font-specification:'Rubik Bold';letter-spacing:0px;word-spacing:0px;fill:#000000;fill-opacity:1;stroke:none"
     id="path935" />
  <path
     d="m 2273.9964,350.00429 q -6.144,0 -10.368,-1.856 -4.224,-1.856 -6.336,-5.056 -2.048,-3.2 -2.048,-7.168 0,-3.392 1.664,-6.08 1.728,-2.752 4.544,-4.288 -2.24,-1.472 -3.456,-3.712 -1.152,-2.24 -1.152,-5.12 0,-3.648 1.856,-6.528 1.92,-2.944 5.76,-4.608 3.84,-1.664 9.536,-1.664 8.384,0 12.672,3.52 4.352,3.52 4.352,9.216 0,5.824 -4.48,8.896 2.88,1.408 4.544,4.16 1.728,2.752 1.728,6.272 0,3.968 -2.112,7.168 -2.112,3.136 -6.4,4.992 -4.224,1.856 -10.304,1.856 z m 0,-27.648 q 2.816,-0.064 4.608,-1.472 1.792,-1.408 1.792,-3.648 0,-2.304 -1.792,-3.712 -1.792,-1.408 -4.608,-1.408 -2.816,0 -4.608,1.408 -1.792,1.408 -1.792,3.712 0,2.304 1.792,3.712 1.792,1.408 4.608,1.408 z m 0,19.456 q 3.136,0 5.184,-1.6 2.048,-1.6 2.048,-4.288 0,-2.688 -2.048,-4.224 -2.048,-1.6 -5.184,-1.6 -3.136,0 -5.248,1.6 -2.048,1.536 -2.048,4.224 0,2.688 2.048,4.288 2.112,1.6 5.248,1.6 z"
     style="font-style:normal;font-variant:normal;font-weight:bold;font-stretch:normal;font-size:64px;line-height:1.25;font-family:Rubik;-inkscape-font-specification:'Rubik Bold';letter-spacing:0px;word-spacing:0px;fill:#000000;fill-opacity:1;stroke:none"
     id="path937" />
  <path
     d="m 2306.8283,349.36429 q -0.576,0 -0.96,-0.384 -0.384,-0.448 -0.384,-1.024 0,-0.448 0.256,-0.832 l 9.024,-12.352 q -0.832,0.192 -1.856,0.192 -3.968,-0.256 -7.488,-2.176 -3.52,-1.92 -5.696,-5.248 -2.176,-3.328 -2.176,-7.616 0,-4.224 2.112,-7.872 2.112,-3.648 6.208,-5.888 4.16,-2.24 9.984,-2.24 5.888,0 10.112,2.048 4.288,2.048 6.464,5.632 2.176,3.52 2.176,7.872 0,3.52 -1.472,6.4 -1.408,2.88 -4.224,6.784 -0.128,0.128 -1.024,1.408 l -10.24,14.016 q -0.896,1.28 -2.304,1.28 z m 9.152,-22.848 q 2.944,0 4.864,-1.792 1.92,-1.792 1.92,-4.864 0,-3.072 -1.92,-4.864 -1.92,-1.856 -4.864,-1.856 -2.944,0 -4.864,1.856 -1.856,1.792 -1.856,4.864 0,3.072 1.92,4.864 1.92,1.792 4.8,1.792 z"
     style="font-style:normal;font-variant:normal;font-weight:bold;font-stretch:normal;font-size:64px;line-height:1.25;font-family:Rubik;-inkscape-font-specification:'Rubik Bold';letter-spacing:0px;word-spacing:0px;fill:#000000;fill-opacity:1;stroke:none"
     id="path939" />
  <path
     d="M 2336.7162,349.36429 Z"
     style="font-style:normal;font-variant:normal;font-weight:bold;font-stretch:normal;font-size:64px;line-height:1.25;font-family:Rubik;-inkscape-font-specification:'Rubik Bold';letter-spacing:0px;word-spacing:0px;fill:#000000;fill-opacity:1;stroke:none"
     id="path941" />
  <path
     d="m 2367.4908,349.93762 q -6.88,0 -10.836,-3.72666 -3.956,-3.72667 -4.128,-10.836 v -2.00666 q 0.2293,-6.76533 4.1853,-10.54933 4.0134,-3.84133 10.7214,-3.84133 4.8733,0 8.1986,2.00666 3.3827,1.94934 5.0454,5.38933 1.72,3.44 1.72,7.912 v 1.376 q 0,0.57333 -0.4014,1.032 -0.4013,0.40133 -1.032,0.40133 h -18.3466 v 0.40133 q 0.1146,2.69467 1.3186,4.35734 1.204,1.66266 3.4974,1.66266 1.4333,0 2.3506,-0.57333 0.9174,-0.63067 1.6627,-1.49067 0.516,-0.63066 0.8027,-0.74533 0.344,-0.172 1.032,-0.172 h 7.1093 q 0.516,0 0.86,0.344 0.4013,0.28667 0.4013,0.80267 0,1.49066 -1.72,3.43999 -1.6626,1.94934 -4.8733,3.38267 -3.2107,1.43333 -7.568,1.43333 z m 4.816,-18.51866 v -0.11466 q 0,-2.80933 -1.3187,-4.41467 -1.2613,-1.66266 -3.5546,-1.66266 -2.236,0 -3.5547,1.66266 -1.2613,1.60534 -1.2613,4.41467 v 0.11466 z"
     style="font-style:normal;font-variant:normal;font-weight:bold;font-stretch:normal;font-size:57.3333px;line-height:1.25;font-family:Rubik;-inkscape-font-specification:'Rubik Bold';letter-spacing:0px;word-spacing:0px;fill:#000000;fill-opacity:1;stroke:none"
     id="path943" />
  <path
     d="m 2388.9334,349.36429 q -0.5733,0 -1.032,-0.40133 -0.4013,-0.45867 -0.4013,-1.032 v -7.28133 q 0,-0.63067 0.4013,-1.032 0.4587,-0.40134 1.032,-0.40134 h 7.2814 q 0.6306,0 1.032,0.40134 0.4013,0.40133 0.4013,1.032 v 7.28133 q 0,0.57333 -0.4013,1.032 -0.4014,0.40133 -1.032,0.40133 z"
     style="font-style:normal;font-variant:normal;font-weight:bold;font-stretch:normal;font-size:57.3333px;line-height:1.25;font-family:Rubik;-inkscape-font-specification:'Rubik Bold';letter-spacing:0px;word-spacing:0px;fill:#000000;fill-opacity:1;stroke:none"
     id="path946" />
  <path
     d="m 2412.784,349.36429 q -1.8347,0 -2.3507,-1.72 l -11.696,-36.69331 -0.1146,-0.516 q 0,-0.45867 0.344,-0.80267 0.4013,-0.40133 0.9173,-0.40133 h 7.1093 q 0.8027,0 1.3187,0.45866 0.5733,0.45867 0.7453,1.032 l 8.1414,26.48799 8.084,-26.48799 q 0.172,-0.57333 0.688,-1.032 0.5733,-0.45866 1.376,-0.45866 h 7.1666 q 0.4587,0 0.8027,0.40133 0.4013,0.344 0.4013,0.80267 l -0.1146,0.516 -11.696,36.69331 q -0.516,1.72 -2.3507,1.72 z"
     style="font-style:normal;font-variant:normal;font-weight:bold;font-stretch:normal;font-size:57.3333px;line-height:1.25;font-family:Rubik;-inkscape-font-specification:'Rubik Bold';letter-spacing:0px;word-spacing:0px;fill:#000000;fill-opacity:1;stroke:none"
     id="path948" />
  <path
     d="m 2438.1826,349.36429 q -0.5733,0 -1.032,-0.40133 -0.4013,-0.45867 -0.4013,-1.032 v -7.28133 q 0,-0.63067 0.4013,-1.032 0.4587,-0.40134 1.032,-0.40134 h 7.2813 q 0.6307,0 1.032,0.40134 0.4014,0.40133 0.4014,1.032 v 7.28133 q 0,0.57333 -0.4014,1.032 -0.4013,0.40133 -1.032,0.40133 z"
     style="font-style:normal;font-variant:normal;font-weight:bold;font-stretch:normal;font-size:57.3333px;line-height:1.25;font-family:Rubik;-inkscape-font-specification:'Rubik Bold';letter-spacing:0px;word-spacing:0px;fill:#000000;fill-opacity:1;stroke:none"
     id="path950" />
  <path
     id="rect874-6"
     style="fill:#ff0000;fill-opacity:1;stroke-width:3.04307"
     d="M 739.69678,323.09732 H 2154.816 v 15.84499 H 739.69678 Z" />
</svg>
